<?xml version="1.0" encoding="UTF-8"?>
<svg version="1.1" xmlns="http://www.w3.org/2000/svg" width="642" height="698">
<path d="M0 0 C0.82113281 0.23106445 1.64226562 0.46212891 2.48828125 0.70019531 C23.80384797 6.9029316 44.95342783 17.24711553 60 34 C61.2065625 35.175625 61.2065625 35.175625 62.4375 36.375 C63.283125 37.24125 64.12875 38.1075 65 39 C65.64453125 39.64839844 66.2890625 40.29679687 66.953125 40.96484375 C90.08107627 65.26536598 100.65432789 99.80915828 100.21484375 132.82421875 C99.29864129 162.93370442 87.16963429 187.57320393 71.87890625 212.87011719 C68.7413197 218.09671017 65.67094969 223.36250267 62.59545898 228.62579346 C60.77434995 231.74150524 58.94985287 234.85522987 57.125 237.96875 C56.77078979 238.57312897 56.41657959 239.17750793 56.05163574 239.80020142 C52.36751708 246.08340913 48.6597321 252.35252043 44.94873047 258.61987305 C41.9346091 263.7142872 38.93339921 268.81605524 35.9453125 273.92578125 C35.59393219 274.52656998 35.24255188 275.1273587 34.88052368 275.74635315 C34.34774307 276.65730995 34.34774307 276.65730995 33.80419922 277.58666992 C33.07781758 278.82862387 32.35141775 280.07056718 31.625 281.3125 C31.26472717 281.92848053 30.90445435 282.54446106 30.53326416 283.17910767 C25.53738637 291.71674737 20.48409874 300.21693974 15.375 308.6875 C9.67032489 318.14738923 4.1201115 327.68766031 -1.37548828 337.27026367 C-6.26803573 345.78156301 -11.30090255 354.20149485 -16.375 362.60546875 C-20.84031521 370.01975255 -25.19434497 377.49201404 -29.5 385 C-35.00954731 394.60727312 -40.65080898 404.12477738 -46.375 413.60546875 C-50.84031521 421.01975255 -55.19434497 428.49201404 -59.5 436 C-65.00529488 445.59985794 -70.64185517 455.1102322 -76.36181641 464.58349609 C-81.62210451 473.31758535 -86.72388391 482.13790445 -91.80126953 490.97924805 C-95.61203283 497.61021692 -99.48632673 504.1908438 -103.4453125 510.734375 C-107.10267837 516.81056876 -110.66779497 522.94181893 -114.25 529.0625 C-119.31654175 537.7183578 -124.39031649 546.36950124 -129.5 555 C-134.52341426 563.48633329 -139.51608927 571.99043647 -144.5 580.5 C-151.13092532 591.81964073 -157.77259061 603.13264425 -164.46923828 614.41357422 C-166.03800142 617.06420846 -167.59550543 619.7212537 -169.15234375 622.37890625 C-189.54855235 657.05214133 -217.12359352 681.54673819 -256.51953125 691.78613281 C-277.9232073 697.13705182 -301.7217689 697.04969315 -323 691 C-324.14033691 690.68651611 -324.14033691 690.68651611 -325.30371094 690.36669922 C-358.31905807 681.06414784 -386.09895399 658.66823832 -403.11376953 629.06201172 C-420.39485686 597.93726223 -424.58655295 561.64932699 -415.30737305 527.34204102 C-410.76647035 511.55887194 -403.36051968 498.16556608 -394.9140625 484.18847656 C-391.82090374 479.0358422 -388.79452148 473.84431789 -385.76382446 468.65481567 C-379.22667904 457.46535944 -372.6357638 446.30859511 -366.02026367 435.1652832 C-361.15234295 426.95966699 -356.31908413 418.73433857 -351.5 410.5 C-346.02794127 401.14992787 -340.53049032 391.81569457 -335 382.5 C-329.04138029 372.4628396 -323.12236303 362.40335944 -317.22509766 352.33007812 C-312.66650973 344.54360621 -308.0962025 336.76435341 -303.5 329 C-298.47664719 320.51363224 -293.48366 312.0097097 -288.5 303.5 C-283.00476791 294.11676964 -277.4920938 284.74421908 -271.953125 275.38671875 C-267.44780928 267.77005876 -262.97208911 260.1361911 -258.5 252.5 C-253.00476791 243.11676964 -247.4920938 233.74421908 -241.953125 224.38671875 C-237.44780928 216.77005876 -232.97208911 209.1361911 -228.5 201.5 C-223.00343649 192.1144962 -217.49034604 182.73912549 -211.94873047 173.38012695 C-208.9346091 168.2857128 -205.93339921 163.18394476 -202.9453125 158.07421875 C-202.59393219 157.47343002 -202.24255188 156.8726413 -201.88052368 156.25364685 C-201.52533661 155.64634232 -201.17014954 155.03903778 -200.80419922 154.41333008 C-200.07781758 153.17137613 -199.35141775 151.92943282 -198.625 150.6875 C-198.26472717 150.07151947 -197.90445435 149.45553894 -197.53326416 148.82089233 C-192.53738637 140.28325263 -187.48409874 131.78306026 -182.375 123.3125 C-177.31950863 114.92913241 -172.37164318 106.49148312 -167.5 98 C-162.41410742 89.13811621 -157.25541327 80.32502222 -152 71.5625 C-151.1018457 70.06299805 -151.1018457 70.06299805 -150.18554688 68.53320312 C-138.44204393 49.02193064 -138.44204393 49.02193064 -133.5 43.8125 C-130.82489342 40.96263772 -128.26610796 38.10324337 -125.8125 35.0625 C-96.79872036 1.89432235 -41.86435721 -11.79140415 0 0 Z " fill="#2F69FF" transform="translate(542,3)"/>
<path d="M0 0 C2.43517299 2.16541938 4.82422714 4.37050978 7.19921875 6.6015625 C7.78832031 7.12621094 8.37742188 7.65085938 8.984375 8.19140625 C30.7739721 28.43564185 44.91154005 61.39925192 46.36035156 90.88037109 C46.89108845 133.46892026 35.99973994 168.26353339 6.19921875 199.6015625 C5.62816406 200.23707031 5.05710938 200.87257813 4.46875 201.52734375 C-17.05343283 224.70933502 -51.05440111 237.00058453 -82.06713867 238.7277832 C-120.7842341 240.03118013 -155.59984447 227.01858552 -183.984375 200.671875 C-202.89624867 182.68853461 -214.88081706 160.66619887 -221.80078125 135.6015625 C-221.99285156 134.9204541 -222.18492187 134.2393457 -222.3828125 133.53759766 C-227.51094198 114.33157839 -227.20161483 88.69110333 -221.80078125 69.6015625 C-221.46216064 68.38799072 -221.46216064 68.38799072 -221.11669922 67.14990234 C-214.52754107 44.26415448 -203.26085371 24.79514978 -186.80078125 7.6015625 C-186.12917969 6.86679688 -185.45757812 6.13203125 -184.765625 5.375 C-136.23795464 -45.96455406 -51.90922315 -44.45224967 0 0 Z " fill="#2F69FF" transform="translate(224.80078125,86.3984375)"/>
</svg>
